<?xml version="1.0" encoding="UTF-8"?><svg id="_イヤー_2" xmlns="http://www.w3.org/2000/svg" viewBox="0 0 407.38 444.88"><g id="_イヤー_2-2"><path d="M55.67,317.09c-1,.52-2.22,.1-2.72-.91-7.49-15.31-14.09-38.4-19.61-68.69-4.25-23.31-6.26-42.5-6.28-42.69l9.95-1.03c.08,.74,7.7,72.69,24.87,107.9,.48,.98,.1,2.17-.87,2.67l-5.33,2.75Z"/><path d="M167.49,444.88c-17.57,0-35.74-3.12-53.13-9.26-26.28-9.28-46.37-24-55.12-40.41-16.92-31.71-8.62-60.79-5.84-68.58,.39-1.09,1.61-1.63,2.68-1.17l2.69,1.15,2.85,1.22c.96,.41,1.45,1.49,1.11,2.48-2.31,6.8-9.36,32.66,5.34,60.2,15,28.11,74.83,52.9,126.63,41.51,20.3-4.46,50.32-14.15,78.06-34.92,26.26-19.67,45.14-45.19,56.14-75.89,.37-1.03,1.49-1.58,2.53-1.22l5.67,1.96c1.05,.36,1.61,1.52,1.24,2.56-11.67,32.6-31.71,59.71-59.59,80.59-23.09,17.3-51.41,29.98-81.91,36.69-9.41,2.07-19.28,3.09-29.35,3.09Z"/><path d="M335.32,316.1c-2.01,0-4.06-.06-6.16-.17-1.11-.06-1.95-1.03-1.87-2.14l.43-5.99c.08-1.09,1.03-1.91,2.12-1.85,19.05,1.03,34.09-3.25,44.75-12.75,10.42-9.29,14.54-21.99,14.91-30.78,.29-6.78-.41-19.4-8.36-27.79-5.4-5.7-13.46-8.65-23.97-8.78-.11,0-.23,0-.34,0-22.93,0-27.21,27.5-27.96,35.12-.1,1.06-1.02,1.85-2.08,1.8l-6.02-.27c-1.13-.05-2-1.02-1.91-2.15,1.36-16.65,10.79-44.86,38.42-44.5,13.32,.16,23.78,4.16,31.11,11.9,10.47,11.06,11.44,26.73,11.09,35.09-.22,5.26-2.2,23.52-18.25,37.82-11.51,10.26-26.94,15.44-45.94,15.44Z"/><path d="M124.07,207.79s-78.53-10.4-80.88-56.38c0,0-14.2,40.28,7.28,73.17,0,0-64.53-20.29-47.66-120.86C20.73-3.05,190.67-10.11,239.34,7.3c50.3,17.99,93.57,53.32,104.85,83.53,0,0,50.26,21.92,59.15,66.06,9.54,47.36,.04,71.68-6.37,89.82,0,0-11.18-31.62-44.05-28.93-37.61,3.08-40.11,54.22-40.11,54.22,0,0-44.09-56.15-28.98-121.59,0,0-34.9,6.38-21.48,51.35,0,0-59.74-22.24-57.72-60.79,0,0-36.25,18.84-23.83,61.46,0,0-55.04,3.69-60.41-60.07,0,0-27.86,22.15,3.69,65.44Z"/><path d="M92.23,301.88c-11.67,0-28.38-5.17-34.45-38.22-3.27-17.81-1.43-31.68,5.47-41.22,6.52-9.02,15.88-12.01,22.58-12.94h0c14.21-1.96,32.45,3.44,38.64,40.29,3.5,20.84-1.64,33.27-6.56,40.03-4.49,6.16-10.92,10.39-17.2,11.31-2.15,.31-5.11,.75-8.48,.75Zm-1.69-84.71c-1.17,0-2.38,.09-3.62,.26h0c-5.16,.71-12.32,2.97-17.19,9.7-5.57,7.7-6.94,19.51-4.08,35.09,6.43,35.02,24.3,32.41,33.9,31,3.24-.47,8.07-2.85,11.89-8.1,4.02-5.52,8.17-15.9,5.14-34-3.79-22.55-12.54-33.95-26.04-33.95Z"/><path d="M209.79,289c-18.05,0-31.23-14.78-36.67-41.68h0c-3.06-15.11-.65-29.69,6.61-40.01,5.4-7.68,12.96-12.42,21.85-13.72,23.8-3.47,37.86,9.57,42.98,39.87,5.66,33.47-2.61,49.86-27.64,54.81-2.45,.48-4.82,.72-7.12,.72Zm-28.83-43.27c6.68,32.98,22.4,37.07,34.4,34.7,23.39-4.62,25.49-20.89,21.31-45.63-4.42-26.15-14.57-36.11-33.94-33.29-6.66,.97-12.35,4.57-16.46,10.41-6,8.53-7.93,20.85-5.31,33.82h0Z"/><path d="M137.62,327.09c-.12,1.18-1.23,1.99-2.4,1.75-4.98-1.03-14.91-4.23-18.38-11.14-1.35-2.68-2.25-7.06,1.08-12.68,3.01-5.08,6.92-6.5,9.66-6.81,7.18-.78,14.28,4.88,17.37,7.74,.85,.79,.85,2.13,0,2.92l-1.46,1.38c-.76,.72-1.95,.72-2.72,.02-2.87-2.61-8.25-6.57-12.55-6.09-2.04,.23-3.73,1.5-5.15,3.9-1.59,2.67-1.87,4.94-.88,6.93,2.14,4.27,9.71,7.03,14.06,7.94,1,.21,1.67,1.15,1.56,2.16l-.21,1.98Z"/><path d="M180.8,395.53c-1.71,0-3.37-.13-4.93-.38-6.64-1.08-11.21-4.19-12.89-8.75-3.79-10.34,2.34-20,16-25.22h0c3.46-1.32,15.27-5.19,22.06,.5,4.82,4.04,9.2,14.55,.42,25.56-4.57,5.73-13.08,8.29-20.67,8.29Zm.33-28.75h0c-3.9,1.49-16.32,7.15-12.51,17.55,.88,2.4,3.88,4.19,8.21,4.89,7.63,1.24,16.39-1.28,19.95-5.73,6.89-8.63,2.64-15.35,.42-17.21-3.41-2.86-10.79-1.51-16.07,.5Z"/><path d="M338.04,288.6c.3-30.56,16.44-42.53,22.22-45.84,1.04-.6,2.37-.14,2.83,.97l.71,1.7,.85,1.99c.39,.92,.06,1.99-.8,2.49-4.54,2.7-17.53,12.68-17.81,38.71-.01,1.08-.89,1.95-1.97,1.97l-4,.05c-1.13,.02-2.04-.91-2.03-2.04Z"/><path d="M107.58,260.94c1.04,11.02-3,18.45-10.3,18.9-7.26,.78-12.5-5.86-13.32-16.9-1.04-11.02,3-18.45,10.3-18.9,7.26-.78,12.5,5.86,13.32,16.9Z"/><path d="M229.98,247.44c1.08,11.46-3.12,19.19-10.71,19.66-7.55,.81-13-6.1-13.86-17.58-1.08-11.46,3.13-19.19,10.71-19.66,7.55-.81,13,6.1,13.86,17.58Z"/></g></svg>